<svg xmlns="http://www.w3.org/2000/svg" version="1.1" xmlns:xlink="http://www.w3.org/1999/xlink" viewBox="0 0 200 200"><rect width="200" height="200" fill="url('#gradient')"></rect><defs><linearGradient id="gradient" gradientTransform="rotate(282 0.5 0.5)"><stop offset="0%" stop-color="#472027"></stop><stop offset="100%" stop-color="#192025"></stop></linearGradient></defs><g><g fill="#ffffff" transform="matrix(4.9781495033978045,0,0,4.9781495033978045,1.6557991012751785,135.1215081260769)" stroke="#682f12" stroke-width="0.2"><path d="M1.07-14.22L5.58-14.22L8.75-4.33L11.91-14.22L16.43-14.22L16.43 0L12.99 0L12.99-3.32L13.32-10.12L9.88 0L7.62 0L4.17-10.13L4.50-3.32L4.50 0L1.07 0L1.07-14.22ZM20.49-3.19L20.49-3.19Q21.27-3.19 21.79-2.73Q22.30-2.27 22.30-1.54Q22.30-0.82 21.79-0.36Q21.27 0.11 20.49 0.11L20.49 0.11Q19.70 0.11 19.18-0.36Q18.67-0.83 18.67-1.54Q18.67-2.26 19.18-2.72Q19.70-3.19 20.49-3.19ZM35.81-14.22L35.81-11.57L31.54-11.57L31.54 0L28.12 0L28.12-11.57L23.93-11.57L23.93-14.22L35.81-14.22ZM36.62-3.19L36.62-3.19Q37.40-3.19 37.92-2.73Q38.44-2.27 38.44-1.54Q38.44-0.82 37.92-0.36Q37.40 0.11 36.62 0.11L36.62 0.11Q35.83 0.11 35.32-0.36Q34.80-0.83 34.80-1.54Q34.80-2.26 35.32-2.72Q35.83-3.19 36.62-3.19Z"></path></g></g></svg>